<svg width="40" height="40" viewBox="0 0 40 40" fill="none" xmlns="http://www.w3.org/2000/svg">
<path d="M20.22 25.6733C20.9563 25.6733 21.6854 25.5283 22.3656 25.2465C23.0458 24.9648 23.6639 24.5518 24.1845 24.0311C24.7051 23.5105 25.1181 22.8924 25.3999 22.2122C25.6817 21.532 25.8267 20.8029 25.8267 20.0666C25.8267 19.3304 25.6817 18.6013 25.3999 17.9211C25.1181 17.2408 24.7051 16.6227 24.1845 16.1021C23.6639 15.5815 23.0458 15.1685 22.3656 14.8867C21.6854 14.605 20.9563 14.46 20.22 14.46C18.733 14.46 17.307 15.0507 16.2555 16.1021C15.204 17.1536 14.6133 18.5796 14.6133 20.0666C14.6133 21.5536 15.204 22.9797 16.2555 24.0311C17.307 25.0826 18.733 25.6733 20.22 25.6733Z" stroke="black" stroke-width="2" stroke-linecap="round" stroke-linejoin="round"/>
<path d="M34.9717 25.1567C34.3113 27.0557 33.2917 28.8098 31.9683 30.3234L28.4283 29.52C27.0857 30.7242 25.4906 31.6126 23.76 32.12L22.8033 35.585C21.9066 35.7458 20.9977 35.8289 20.0867 35.8334C18.9469 35.8347 17.8106 35.7061 16.7 35.45L15.685 31.8734C14.1723 31.3158 12.7817 30.4708 11.59 29.385L8.08999 30.285C6.70194 28.663 5.66007 26.7743 5.02832 24.735L7.61165 21.865C7.37588 20.3973 7.41488 18.8985 7.72665 17.445L5.17832 14.7867C5.9191 12.7015 7.09321 10.797 8.62332 9.19837L12.24 10.0984C13.2359 9.29989 14.3453 8.65445 15.5317 8.18337L16.4883 4.64337C17.6699 4.33737 18.8845 4.17674 20.105 4.16504C21.08 4.16504 22.055 4.25504 23.0133 4.43171L23.9317 7.95337C25.315 8.40171 26.6117 9.08671 27.7583 9.98171L31.395 9.04337C32.8622 10.5221 34.0198 12.2786 34.8 14.21L32.3333 16.8884C32.8011 18.7238 32.8399 20.6422 32.4467 22.495L34.9717 25.1567Z" stroke="black" stroke-width="2" stroke-linecap="round" stroke-linejoin="round"/>
</svg>
